<svg width="84" height="55" viewBox="0 0 84 55" fill="none" xmlns="http://www.w3.org/2000/svg">
<g id="Logo" clip-path="url(#clip0_449_3699)">
<path id="Vector" d="M24.2822 32.7438C24.3795 31.5303 24.4211 30.3092 24.5862 29.1051C24.8748 26.9998 26.1202 25.4746 27.7616 24.2572C30.5234 22.209 33.6692 21.0109 36.9632 20.1492C37.5919 19.9847 38.2386 19.8017 38.7963 19.4842C39.1407 19.2882 39.3324 18.8217 39.6392 18.3974C39.9444 18.2877 40.2244 18.1782 40.4576 18.2417C41.1736 18.4367 41.8716 18.698 42.6036 18.9659C42.7121 19.0063 42.7936 19.0142 42.8645 19.0178C42.8538 19.0134 42.8686 18.9956 42.8795 19.0465C43.0893 19.1935 43.2809 19.3108 43.4882 19.3823C45.6918 20.1417 47.916 20.8453 50.0979 21.6626C52.0175 22.3817 53.8216 23.3463 55.42 24.6634C55.5445 24.7661 55.7581 24.7598 55.9354 24.8153C55.9405 24.8264 55.9523 24.8478 55.9317 24.8851C55.975 24.9662 56.0388 25.01 56.1394 25.0842C57.5185 27.2041 58.2874 29.4589 58.179 31.9787C58.1588 32.448 57.9596 32.7084 57.5165 32.7616C56.8681 32.8395 56.2151 32.9466 55.5657 32.9363C53.7832 32.9081 52.0016 32.7759 50.2195 32.7722C41.9569 32.7551 33.6942 32.7681 25.4316 32.7686C25.0485 32.7686 24.6653 32.7524 24.2822 32.7438ZM46.4385 21.1778C46.6086 21.3207 46.7567 21.5263 46.9525 21.5951C47.655 21.8418 48.3869 22.0063 49.0836 22.2668C51.3951 23.131 53.3613 24.3591 53.8899 27.0453C53.9122 27.1587 54.0864 27.2419 54.1899 27.3392C54.2632 27.2185 54.3921 27.1 54.3972 26.9764C54.4052 26.7784 54.3437 26.5736 54.2899 26.3777C53.8858 24.9061 52.9633 23.8225 51.7358 22.9751C50.257 21.9542 48.558 21.4768 46.8562 21.0135C46.7484 20.9842 46.6111 21.0638 46.4385 21.1778ZM54.7129 29.6667C54.856 29.8035 54.9991 29.9404 55.1423 30.0773C55.175 29.8831 55.2449 29.6863 55.2318 29.4953C55.212 29.2078 55.1546 28.9181 55.0716 28.6419C55.0345 28.5183 54.8965 28.4253 54.8044 28.3184C54.713 28.4476 54.546 28.5766 54.5457 28.706C54.5451 28.9918 54.6284 29.2778 54.7129 29.6667Z" fill="#F9F3BC"/>
<path id="Vector_2" d="M42.5766 18.9335C41.8716 18.6979 41.1736 18.4367 40.4576 18.2417C40.2244 18.1782 39.9444 18.2877 39.639 18.3463C36.2455 19.1746 32.7875 19.6143 29.6685 21.1814C26.2621 22.8928 23.9688 25.5691 23.143 29.3719C23.0057 30.0044 23.059 30.6781 23.0165 31.3323C23.0021 31.5535 22.9639 31.7731 22.9366 31.9935C22.8478 32.0014 22.7591 32.0094 22.6703 32.0173C22.6148 31.7396 22.5186 31.4631 22.5101 31.1838C22.4267 28.4567 23.5087 26.1687 25.1807 24.1059C27.3173 21.4699 30.1993 20.1145 33.3916 19.3111C35.27 18.8384 37.1612 18.4171 39.0464 17.9716C39.1487 17.9474 39.2488 17.9136 39.4427 17.7324C39.3598 17.7025 39.2651 17.6892 39.1956 17.6401C38.2822 16.9948 38.1106 16.2543 38.667 15.3838C39.2328 14.4986 40.369 14.1854 41.2032 14.6846C41.9464 15.1293 42.08 15.9061 41.5552 17.108C41.3257 17.3722 41.1487 17.5642 40.9175 17.8151C41.275 17.9223 41.5819 18.0143 41.8887 18.1062C43.6857 18.5997 45.4962 19.0494 47.2759 19.5994C48.9688 20.1225 50.6964 20.6076 52.2918 21.3594C56.9245 23.5426 58.7881 27.4264 58.6617 32.5053C58.2299 32.8454 57.8543 33.2174 57.418 33.3144C56.7219 33.4691 55.9846 33.4917 55.2663 33.48C53.5073 33.4511 51.7493 33.3225 49.9908 33.3193C41.4622 33.3034 32.9336 33.3168 24.4049 33.3118C24.1452 33.3116 23.8855 33.2231 23.6257 33.1757C23.8155 33.042 24.0053 32.9083 24.2386 32.7592C24.6653 32.7524 25.0484 32.7686 25.4315 32.7686C33.6942 32.7681 41.9568 32.7551 50.2194 32.7722C52.0016 32.7759 53.7831 32.908 55.5657 32.9363C56.2151 32.9466 56.868 32.8395 57.5165 32.7616C57.9595 32.7084 58.1588 32.448 58.179 31.9787C58.2873 29.4589 57.5185 27.2041 56.1331 25.0507C56.0442 24.9404 55.9982 24.8941 55.9523 24.8478C55.9523 24.8478 55.9404 24.8264 55.9189 24.7773C54.7574 23.2285 53.2731 22.1243 51.5287 21.5416C48.6764 20.589 45.7587 19.834 42.8686 18.9956C42.8686 18.9956 42.8537 19.0134 42.8391 18.9841C42.7419 18.9477 42.6593 18.9406 42.5766 18.9335ZM39.5181 17.2264C40.0865 17.6407 40.5689 17.4879 40.9542 16.9666C41.1209 16.741 41.2102 16.4575 41.3708 16.0925C41.428 15.4842 41.192 15.0797 40.5689 14.9672C39.8626 14.8396 39.1242 15.2726 38.9197 15.9527C38.7592 16.4864 38.8503 16.9385 39.5181 17.2264Z" fill="#454114"/>
<path id="Vector_3" d="M23.5917 33.2177C23.8855 33.2231 24.1452 33.3116 24.405 33.3118C32.9336 33.3168 41.4623 33.3034 49.9909 33.3193C51.7494 33.3226 53.5074 33.4512 55.2663 33.48C55.9847 33.4917 56.722 33.4691 57.4181 33.3144C57.8543 33.2174 58.2299 32.8454 58.6661 32.5637C59.0492 32.6741 59.3989 32.8176 59.7889 33.022C59.9926 33.1869 60.1507 33.3685 60.3205 33.3804C60.821 33.4154 61.3261 33.3831 61.8585 33.4098C62.1853 33.72 62.4831 33.9977 62.7359 34.3072C62.3183 34.4254 61.9481 34.5742 61.5732 34.5873C59.9268 34.6448 58.2791 34.6904 56.6318 34.6913C45.1337 34.698 33.6356 34.6957 22.1375 34.6834C21.3979 34.6826 20.6583 34.5742 19.9187 34.5159C20.0425 33.7032 20.6694 33.4117 21.7603 33.4849C22.3518 33.5246 22.958 33.342 23.5917 33.2177Z" fill="#F8F2BC"/>
<path id="Vector_4" d="M61.8294 33.3772C61.326 33.3831 60.8209 33.4153 60.3204 33.3803C60.1506 33.3685 59.9925 33.1869 59.8403 33.0362C60.8327 32.9927 61.8186 32.9433 62.792 33.0325C63.0703 33.058 63.4743 33.4513 63.5331 33.7358C63.6228 34.1704 63.4182 34.6611 62.9146 34.8175C62.4236 34.97 61.9082 35.1092 61.3994 35.1255C59.4613 35.1879 57.5216 35.1982 55.4691 35.2113C55.085 35.1847 54.8142 35.1664 54.5434 35.1663C44.3097 35.1627 34.076 35.1601 23.8422 35.1621C23.5299 35.1622 23.2176 35.2133 22.9053 35.2406C22.0284 35.2063 21.1443 35.228 20.2773 35.1159C19.7856 35.0522 19.2788 34.8372 18.8571 34.567C18.364 34.2512 18.3734 33.7214 18.7697 33.2851C19.2819 32.7212 20.5486 32.4606 21.2213 32.7955C21.3206 32.845 21.3806 32.974 21.4587 33.0662C21.3394 33.1273 21.2221 33.2361 21.1005 33.241C20.6788 33.2583 20.231 33.1515 19.8409 33.2619C19.524 33.3516 19.2756 33.6854 18.9969 33.911C19.2692 34.1121 19.5416 34.3133 19.8662 34.5151C20.6582 34.5742 21.3978 34.6826 22.1374 34.6834C33.6355 34.6957 45.1336 34.698 56.6317 34.6913C58.2789 34.6903 59.9267 34.6448 61.5731 34.5873C61.948 34.5742 62.3182 34.4254 62.7819 34.2943C63.1779 33.8208 63.1114 33.5395 62.557 33.4608C62.3153 33.4265 62.072 33.4047 61.8294 33.3772Z" fill="#474315"/>
<path id="Vector_5" d="M22.947 35.2794C23.2177 35.2133 23.53 35.1622 23.8424 35.1621C34.0761 35.1601 44.3098 35.1627 54.5435 35.1663C54.8143 35.1664 55.0851 35.1847 55.4064 35.2182C55.3344 35.2862 55.2133 35.3644 55.089 35.3698C53.7842 35.4268 52.4792 35.4988 51.1736 35.5159C46.9096 35.5717 42.6448 35.6695 38.3814 35.6305C34.5536 35.5955 30.7276 35.3872 26.9 35.2848C25.5974 35.2499 24.2925 35.3046 22.947 35.2794Z" fill="#E2DDAA"/>
<path id="Vector_6" d="M13.0614 41.1517C14.4319 40.4765 15.7376 40.4881 16.9293 41.4009C18.2182 42.3881 18.5385 43.7693 18.2163 45.2978C17.9208 46.7001 17.0615 47.6316 15.6521 47.9838C14.0707 48.3789 12.5125 47.6657 11.7652 46.2294C10.9583 44.6786 11.2913 42.6309 12.5318 41.5444C12.6842 41.4109 12.8564 41.3 13.0614 41.1517ZM11.991 43.3587C11.9486 43.6269 11.8891 43.8937 11.8666 44.1636C11.746 45.6117 12.6146 47.0632 13.8423 47.4813C15.1595 47.93 16.5252 47.482 17.2671 46.2833C18.006 45.0895 18.0139 43.823 17.3419 42.6032C16.7539 41.5357 15.7918 41.0391 14.5764 41.1409C13.257 41.2513 12.4557 42.0335 11.991 43.3587Z" fill="#776E19"/>
<path id="Vector_7" d="M29.4257 47.9436C28.4288 47.9542 27.4888 47.9542 26.5012 47.9542C26.5012 45.7849 26.5012 43.6699 26.5012 41.4924C27.5954 41.3862 28.6926 41.2632 29.7588 41.6624C31.1552 42.1853 31.9196 43.4501 31.8462 45.0447C31.7736 46.6186 31.0413 47.5136 29.4257 47.9436ZM29.5642 42.0696C28.7217 41.7602 27.8665 41.7582 26.9946 41.8955C26.9946 43.8088 26.9946 45.6544 26.9946 47.5608C27.4978 47.5829 27.9665 47.6271 28.4344 47.62C30.5103 47.5885 31.5437 46.4146 31.3068 44.3521C31.1858 43.2983 30.592 42.5746 29.5642 42.0696Z" fill="#7E7524"/>
<path id="Vector_8" d="M48.9466 41.8148C48.9467 42.5535 48.9467 43.2276 48.9467 43.9256C50.595 43.9256 52.1665 43.9256 53.7863 43.9256C53.7863 42.908 53.7863 41.9195 53.7863 40.9311C53.8468 40.8845 53.9073 40.8379 53.9678 40.7914C54.0843 40.9253 54.301 41.0583 54.3024 41.1934C54.3241 43.3234 54.3241 45.4538 54.305 47.5838C54.3037 47.7255 54.1089 47.8655 54.0042 48.0062C53.945 47.9653 53.8859 47.9243 53.8268 47.8834C53.8268 46.7562 53.8268 45.6289 53.8268 44.445C52.2043 44.445 50.6194 44.445 48.9698 44.445C48.9698 45.5888 48.9698 46.7328 48.9698 47.8768C48.9015 47.9172 48.8331 47.9575 48.7647 47.9979C48.6608 47.861 48.4678 47.725 48.4665 47.5871C48.4465 45.4571 48.4456 43.3268 48.4631 41.1967C48.4642 41.0539 48.6475 40.9126 48.746 40.7706C48.8129 40.8076 48.8798 40.8446 48.9466 40.8817C48.9466 41.1712 48.9466 41.4607 48.9466 41.8148Z" fill="#7E7524"/>
<path id="Vector_9" d="M62.2335 46.2945C62.233 46.7682 62.2528 47.1772 62.2205 47.582C62.2092 47.7239 62.0698 47.8556 61.989 47.992C61.9305 47.9639 61.872 47.9357 61.8135 47.9076C61.8135 45.7915 61.8135 43.6754 61.8135 41.4797C62.4443 41.4797 63.0528 41.4195 63.6455 41.4913C65.2484 41.6854 65.8668 43.2099 64.8888 44.4962C64.7128 44.7278 64.5051 44.9351 64.2647 45.2073C65.0877 46.1496 65.5881 47.407 66.9479 47.8669C66.4031 48.092 65.9432 47.9143 65.5785 47.5679C65.1889 47.1978 64.8523 46.7653 64.5286 46.3329C63.7187 45.2508 63.7269 45.2446 62.2332 45.3755C62.2332 45.6545 62.2332 45.9413 62.2335 46.2945ZM64.7708 43.7937C64.9751 42.2245 63.9994 41.4945 62.276 41.9386C62.276 42.918 62.276 43.8998 62.276 44.874C63.8207 45.0987 64.1583 44.9606 64.7708 43.7937Z" fill="#766D18"/>
<path id="Vector_10" d="M40.3326 45.3414C39.9368 45.3411 39.6006 45.3411 39.1709 45.3411C39.1709 46.1175 39.1802 46.8803 39.1599 47.6423C39.1571 47.7442 39.0045 47.842 38.9213 47.9417C38.8531 47.8477 38.7258 47.7541 38.7253 47.6598C38.7139 45.6261 38.7166 43.5922 38.7166 41.4793C39.3824 41.4793 39.9881 41.4424 40.5873 41.4891C41.2771 41.5428 41.8655 41.8453 42.1314 42.5292C42.4166 43.2626 42.2719 43.9577 41.7788 44.5693C41.6111 44.7773 41.417 44.9639 41.2018 45.1959C42.0237 46.1695 42.5476 47.3969 43.8739 47.8778C43.2191 48.0807 42.7144 47.8453 42.3238 47.3995C41.848 46.8565 41.4423 46.252 40.9749 45.7009C40.8344 45.5352 40.5893 45.459 40.3326 45.3414ZM39.6905 41.829C39.518 41.9475 39.202 42.0589 39.1959 42.1855C39.1525 43.078 39.1729 43.9737 39.1729 44.9526C39.5345 44.9526 39.8206 44.9493 40.1066 44.9533C41.0017 44.9658 41.6774 44.3525 41.7575 43.4515C41.8381 42.5441 41.3931 42.0088 40.4131 41.8525C40.2152 41.821 40.0106 41.8316 39.6905 41.829Z" fill="#776E19"/>
<path id="Vector_11" d="M20.3431 41.8588C20.4108 41.6995 20.4782 41.5175 20.5451 41.5177C21.2616 41.5197 22.0075 41.4312 22.688 41.6002C23.8612 41.8915 24.2813 43.2301 23.6094 44.2879C23.407 44.6065 23.1375 44.8822 22.8607 45.2246C23.6676 46.1877 24.2047 47.3973 25.5296 47.8747C24.8792 48.1064 24.402 47.8413 24.0096 47.4425C23.647 47.0743 23.3404 46.6477 23.0299 46.2312C22.2724 45.2152 22.2602 45.2049 20.8139 45.4025C20.8139 46.0636 20.8296 46.7374 20.8035 47.4096C20.7964 47.5901 20.6618 47.7656 20.5857 47.9434C20.5051 47.7718 20.3561 47.6008 20.3545 47.4285C20.3371 45.5927 20.343 43.7566 20.3431 41.8588ZM21.0076 44.9229C21.5536 44.8677 22.1692 44.954 22.6297 44.7254C23.3816 44.3521 23.6366 43.2662 23.2877 42.6017C22.9798 42.0154 21.7575 41.5978 21.0642 41.8589C20.9621 41.8973 20.8244 42.0338 20.8251 42.1239C20.833 43.0427 20.8662 43.9612 21.0076 44.9229Z" fill="#79701C"/>
<path id="Vector_12" d="M70.0356 44.6386C69.4385 44.6387 68.9023 44.6387 68.3326 44.6387C68.3326 45.6252 68.3326 46.5415 68.3326 47.5243C69.0834 47.5243 69.8004 47.5134 70.5166 47.5337C70.6566 47.5377 70.7932 47.6629 70.9315 47.7321C70.7995 47.8065 70.6688 47.9424 70.5352 47.9454C69.6568 47.9647 68.7778 47.9553 67.8523 47.9553C67.8523 45.7937 67.8523 43.6754 67.8523 41.5427C68.8463 41.5427 69.8378 41.5427 70.8293 41.5427C70.8342 41.6066 70.839 41.6705 70.8438 41.7345C70.0656 42.0995 69.1892 41.7427 68.3427 41.9579C68.3427 42.6812 68.3427 43.4169 68.3427 44.2572C69.1047 44.2572 69.8505 44.2572 70.5962 44.2572C70.6061 44.3319 70.6159 44.4066 70.6257 44.4813C70.4493 44.5337 70.2729 44.5862 70.0356 44.6386Z" fill="#837A2E"/>
<path id="Vector_13" d="M59.5502 44.288C59.4496 44.4278 59.3074 44.6144 59.1543 44.6239C58.5743 44.6598 57.9909 44.6383 57.3658 44.6383C57.3658 45.6115 57.3658 46.5266 57.3658 47.497C58.2336 47.589 59.1315 47.4288 59.9792 47.5858C59.9655 47.6929 59.9519 47.8 59.9382 47.9071C58.9201 47.9071 57.902 47.9071 56.8572 47.9071C56.8572 45.779 56.8572 43.6757 56.8572 41.5298C57.8674 41.5298 58.8578 41.5298 60.0255 41.5298C59.572 42.0814 59.0995 41.8423 58.7146 41.8842C58.2919 41.9302 57.8605 41.8946 57.3782 41.8946C57.3782 42.6567 57.3782 43.3906 57.3782 44.2534C58.0821 44.2534 58.7928 44.2534 59.5502 44.288Z" fill="#847B2F"/>
<path id="Vector_14" d="M34.35 41.4832C35.1926 41.4833 35.973 41.4833 36.7534 41.4833C36.7623 41.575 36.7713 41.6667 36.7802 41.7585C36.0025 42.0779 35.121 41.7356 34.2862 41.9501C34.2862 42.6869 34.2862 43.4206 34.2862 44.2332C35.0477 44.2332 35.7796 44.2332 36.5445 44.2332C36.3652 44.6325 36.3652 44.6326 35.5561 44.633C35.1531 44.6332 34.7502 44.633 34.2947 44.633C34.2947 45.5953 34.2947 46.5111 34.2947 47.4388C35.1522 47.5188 36.0187 47.5996 36.8843 47.6887C36.8867 47.689 36.8766 47.8122 36.8699 47.9142C35.8556 47.9142 34.85 47.9142 33.8047 47.9142C33.8047 45.8053 33.8047 43.7069 33.8047 41.5475C33.9559 41.5274 34.1219 41.5053 34.35 41.4832Z" fill="#7C7323"/>
<path id="Vector_15" d="M30.7206 6.7217C32.0135 8.51505 33.2786 10.2674 34.5426 12.0205C34.6349 12.1484 34.7437 12.2721 34.8008 12.4154C34.8497 12.5382 34.8353 12.6864 34.8489 12.8234C34.6989 12.778 34.494 12.7796 34.4085 12.6789C34.0597 12.2679 33.7384 11.832 33.4231 11.3936C32.293 9.82162 31.1655 8.24775 30.0493 6.66583C29.9298 6.49643 29.8911 6.26952 29.8149 6.06929C29.8939 6.0198 29.9728 5.97031 30.0517 5.92082C30.2653 6.17418 30.479 6.42753 30.7206 6.7217Z" fill="#F7ED9B"/>
<path id="Vector_16" d="M47.4969 11.2129C47.1376 11.7106 46.8203 12.18 46.4625 12.6158C46.3609 12.7394 46.1408 12.765 45.9751 12.8355C46.0078 12.6606 45.9875 12.4475 46.0812 12.3166C47.3698 10.5154 48.6729 8.72477 49.9757 6.93389C50.2247 6.59167 50.4875 6.2596 50.7439 5.92285C50.8301 5.97304 50.9164 6.02323 51.0027 6.07342C50.9166 6.29079 50.8698 6.53643 50.7381 6.72107C49.6756 8.21114 48.5971 9.68974 47.4969 11.2129Z" fill="#F7ED9A"/>
<path id="Vector_17" d="M40.7962 9.11032C40.732 9.96328 40.6682 10.7498 40.6044 11.5364C40.5024 11.5424 40.4003 11.5484 40.2983 11.5544C40.2473 11.3289 40.1493 11.1028 40.1527 10.8782C40.1797 9.09111 40.2188 7.30407 40.2771 5.51777C40.2831 5.33284 40.4386 5.15283 40.5248 4.97054C40.6156 5.14971 40.7815 5.32737 40.7851 5.5083C40.8086 6.68644 40.7969 7.86529 40.7962 9.11032Z" fill="#F7EE9D"/>
<path id="Vector_18" d="M28.5203 14.5214C27.3819 13.5411 26.2775 12.5946 25.0896 11.5765C26.0244 11.4522 29.8585 14.6629 30.2047 15.7614C29.318 15.7647 29.1548 14.8397 28.5203 14.5214Z" fill="#F7ED9A"/>
<path id="Vector_19" d="M52.1214 13.9437C53.2161 13.0294 54.2033 12.0478 55.4422 11.4159C55.495 11.4611 55.5479 11.5062 55.6008 11.5514C55.5038 11.7155 55.4404 11.918 55.3046 12.0377C53.9347 13.2459 52.5543 14.4421 51.1716 15.6355C51.0801 15.7145 50.9457 15.7434 50.7002 15.8553C50.8067 14.8516 51.6417 14.5534 52.1214 13.9437Z" fill="#F7ED9B"/>
<path id="Vector_20" d="M41.8874 18.0514C41.5819 18.0143 41.275 17.9223 40.9175 17.8151C41.1487 17.5642 41.3257 17.3722 41.541 17.1579C41.6816 17.4227 41.7839 17.7096 41.8874 18.0514Z" fill="#ECE7B6"/>
<path id="Vector_21" d="M42.8794 19.0465C45.7586 19.834 48.6763 20.589 51.5286 21.5416C53.273 22.1243 54.7573 23.2285 55.9137 24.7663C55.7579 24.7598 55.5444 24.7661 55.4199 24.6634C53.8215 23.3463 52.0174 22.3817 50.0978 21.6626C47.9158 20.8453 45.6917 20.1417 43.488 19.3823C43.2808 19.3108 43.0892 19.1935 42.8794 19.0465Z" fill="#F6F5F1"/>
<path id="Vector_22" d="M46.4631 21.1353C46.6112 21.0638 46.7484 20.9842 46.8563 21.0135C48.5581 21.4768 50.2571 21.9542 51.7359 22.9751C52.9634 23.8225 53.8859 24.9061 54.2899 26.3777C54.3437 26.5736 54.4053 26.7784 54.3972 26.9764C54.3922 27.1 54.2633 27.2185 54.1899 27.3392C54.0865 27.2419 53.9123 27.1587 53.8899 27.0452C53.3614 24.3591 51.3951 23.131 49.0837 22.2668C48.387 22.0063 47.6551 21.8418 46.9526 21.5951C46.7568 21.5263 46.6086 21.3207 46.4631 21.1353Z" fill="#474314"/>
<path id="Vector_23" d="M54.6951 29.6152C54.6283 29.2778 54.545 28.9918 54.5457 28.706C54.5459 28.5766 54.7129 28.4476 54.8043 28.3184C54.8965 28.4253 55.0344 28.5183 55.0715 28.6419C55.1545 28.9181 55.2119 29.2078 55.2317 29.4953C55.2448 29.6863 55.1749 29.8831 55.1422 30.0773C54.9991 29.9404 54.8559 29.8035 54.6951 29.6152Z" fill="#4F4B1C"/>
<path id="Vector_24" d="M55.9316 24.8851C55.9982 24.8941 56.0442 24.9404 56.0964 25.0202C56.0388 25.01 55.9749 24.9662 55.9316 24.8851Z" fill="#F6F5F1"/>
<path id="Vector_25" d="M42.6035 18.9659C42.6592 18.9406 42.7419 18.9477 42.8498 18.9884C42.7935 19.0142 42.712 19.0063 42.6035 18.9659Z" fill="#F6F5F1"/>
<path id="Vector_26" d="M39.4472 17.1504C38.8502 16.9385 38.7592 16.4865 38.9197 15.9527C39.1242 15.2727 39.8625 14.8396 40.5688 14.9672C41.1919 15.0797 41.4279 15.4842 41.3101 16.1238C40.8756 15.7283 40.4278 15.6974 39.9297 15.8971C39.3171 16.1428 39.4732 16.6805 39.4472 17.1504Z" fill="#F6F6F2"/>
<path id="Vector_27" d="M39.4828 17.1884C39.4734 16.6805 39.3172 16.1428 39.9299 15.8971C40.428 15.6974 40.8758 15.7283 41.2922 16.1777C41.2103 16.4575 41.121 16.741 40.9543 16.9666C40.569 17.4879 40.0866 17.6407 39.4828 17.1884Z" fill="#F6F0BB"/>
<path id="Vector_28" d="M61.8584 33.4098C62.072 33.4047 62.3154 33.4265 62.557 33.4608C63.1114 33.5395 63.1779 33.8208 62.8271 34.2624C62.4831 33.9977 62.1852 33.72 61.8584 33.4098Z" fill="#F6F5F1"/>
</g>
<defs>
<clipPath id="clip0_449_3699">
<rect width="83.785" height="55" fill="white"/>
</clipPath>
</defs>
</svg>
